<?xml version="1.0" encoding="utf-8"?>
<!-- Svg Vector Icons : http://www.onlinewebfonts.com/icon -->
<!DOCTYPE svg PUBLIC "-//W3C//DTD SVG 1.1//EN" "http://www.w3.org/Graphics/SVG/1.1/DTD/svg11.dtd">
<svg version="1.1" xmlns="http://www.w3.org/2000/svg" xmlns:xlink="http://www.w3.org/1999/xlink" x="0px" y="0px" viewBox="0 0 1000 1000" enable-background="new 0 0 1000 1000" xml:space="preserve">
<metadata> Svg Vector Icons : http://www.onlinewebfonts.com/icon </metadata>
<g><g transform="translate(0.000000,511.000000) scale(0.100000,-0.100000)"><path d="M6875.4,4985.6C6160,4806.2,5717,4093,5870.4,3369c38.9-183.7,153.4-427.9,261.5-551.1l80-95.1L4299.2,810.1L2386.6-1102.5l-112.4,88.6C1664.7-534.1,748.4-685.4,314-1338.1c-54-84.3-125.3-222.6-157.8-306.9c-47.5-136.2-56.2-188-56.2-436.6c0-239.9,8.6-304.7,51.9-440.9c105.9-319.9,352.3-611.6,652.7-769.4c153.4-80,430.1-162.1,548.9-162.1c69.2,0,69.2,0,84.3-134c51.9-514.4,408.5-961.7,903.4-1134.6c207.5-73.5,542.5-90.8,758.6-41c644,151.3,1084.9,745.6,1046,1406.9c-19.5,296.1-112.4,540.3-291.8,765.1l-75.6,92.9L5693.2-583.8l1912.7,1912.7l90.8-77.8c49.7-41.1,162.1-112.4,248.5-155.6c778-384.7,1726.8,64.8,1925.6,912c51.9,216.1,32.4,551.1-41.1,762.9c-170.7,482-631.1,849.4-1130.3,899.1c-138.3,15.1-138.3,15.1-138.3,84.3c0,118.9-82.1,395.5-162.1,548.9c-153.4,291.8-432.2,531.7-745.6,644.1c-134,47.5-205.3,58.3-410.6,64.8C7082.9,5013.7,6951,5005,6875.4,4985.6z M7448.1,4661.4c278.8-73.5,544.6-283.1,670-527.3c75.6-153.4,125.3-393.3,110.2-536c-23.8-201,51.9-276.6,252.9-252.9c151.3,17.3,393.4-36.7,555.4-123.2c153.4-82.1,341.5-272.3,419.3-425.8c211.8-417.1,140.5-875.3-190.2-1206c-408.4-408.5-1039.5-402-1463.1,15.1C7698.8,1707,7657.8,1733,7603.7,1733c-62.7,0-259.3-190.2-2148.2-2081.2C3564.4-2237.2,3374.2-2433.8,3374.2-2496.5c0-54,25.9-95.1,127.5-198.8c577-587.8,322-1536.6-466.8-1741.9c-443-116.7-953.1,116.7-1162.7,527.3c-75.6,153.4-125.3,393.3-110.2,536c23.8,201-51.9,276.6-252.9,252.9c-142.6-15.1-382.5,34.6-536,110.2c-244.2,125.4-453.9,391.2-527.3,670c-149.1,577.1,250.7,1171.4,851.5,1264.3c315.5,49.7,644-62.7,890.4-304.7c103.7-101.6,144.8-127.5,198.8-127.5c62.7,0,259.3,190.2,2148.2,2081.2C6425.9,2461.3,6616,2658,6616,2720.7c0,54-25.9,95.1-127.5,198.8c-242,246.4-354.4,574.9-304.7,890.4C6276.7,4410.7,6871.1,4810.5,7448.1,4661.4z"/></g></g>
</svg>